<?xml version="1.0" encoding="iso-8859-1"?>
<!-- Generator: Adobe Illustrator 19.0.0, SVG Export Plug-In . SVG Version: 6.00 Build 0)  -->
<svg version="1.1" id="Layer_1" xmlns="http://www.w3.org/2000/svg" xmlns:xlink="http://www.w3.org/1999/xlink" x="0px" y="0px"
	 viewBox="0 0 495 495" style="enable-background:new 0 0 495 495;" xml:space="preserve">
<g>
	<polygon style="fill:#FF9811;" points="293.761,174.625 309.37,0 247.5,0 247.5,118.58 	"/>
	<polygon style="fill:#FFB655;" points="247.5,0 185.63,0 201.239,174.625 247.5,118.58 	"/>
	<polygon style="fill:#FF9811;" points="350.504,293.036 491.25,305.617 491.25,243.747 345.007,243.747 	"/>
	<polygon style="fill:#FFB655;" points="345.007,243.747 491.25,243.747 491.25,181.877 312.906,197.819 344.1,235.61 	"/>
	<polygon style="fill:#FF9811;" points="3.75,243.747 3.75,305.617 144.496,293.036 149.993,243.747 	"/>
	<polygon style="fill:#FFB655;" points="150.9,235.61 182.094,197.819 3.75,181.877 3.75,243.747 149.993,243.747 	"/>
	<polygon style="fill:#FFD422;" points="247.5,375 267.5,375 267.5,455 368.567,455 344.1,235.61 247.5,118.58 	"/>
	<polygon style="fill:#FFE477;" points="227.5,375 247.5,375 247.5,118.58 150.9,235.61 126.433,455 227.5,455 	"/>
	<rect x="227.5" y="375" style="fill:#6A563D;" width="40" height="80"/>
	<rect y="455" style="fill:#6DC82A;" width="495" height="40"/>
</g>
<g>
</g>
<g>
</g>
<g>
</g>
<g>
</g>
<g>
</g>
<g>
</g>
<g>
</g>
<g>
</g>
<g>
</g>
<g>
</g>
<g>
</g>
<g>
</g>
<g>
</g>
<g>
</g>
<g>
</g>
</svg>
